<?xml version="1.0" encoding="iso-8859-1"?>
<!-- Generator: Adobe Illustrator 19.0.0, SVG Export Plug-In . SVG Version: 6.00 Build 0)  -->
<svg version="1.1" id="Layer_1" xmlns="http://www.w3.org/2000/svg" xmlns:xlink="http://www.w3.org/1999/xlink" x="0px" y="0px"
	 viewBox="0 0 342.521 342.521" style="enable-background:new 0 0 342.521 342.521;" xml:space="preserve">
<g>
	<path style="fill:#CAA977;" d="M277.821,106.955c0.651-9.136-6.309-16.611-15.469-16.611H80.166
		c-9.159,0-16.12,7.476-15.469,16.611L80.31,325.91c0.652,9.137,8.679,16.611,17.838,16.611h146.221
		c9.159,0,17.186-7.475,17.838-16.611L277.821,106.955z"/>
	<rect x="56.539" y="78.826" style="fill:#DCDDDE;" width="229.443" height="40.705"/>
	<rect x="67.662" y="58.475" style="fill:#C3C6C8;" width="207.198" height="20.351"/>
	<g>
		<path style="fill:#6CC04A;" d="M281.42,185.278c0.523-6.084-4.045-11.062-10.151-11.062H71.249
			c-6.106,0-10.674,4.978-10.151,11.062l5.354,62.308c0.523,6.084,5.947,11.06,12.053,11.06h185.508
			c6.106,0,11.53-4.976,12.053-11.06L281.42,185.278z"/>
		<g>
			<circle style="fill:#FFFFFF;" cx="171.259" cy="216.434" r="25.535"/>
			<g>
				<path style="fill:#A88D63;" d="M171.259,216.434c0-16.646,0.837-16.099-3.608-16.099s-8.049,7.208-8.049,16.099
					c0,8.89,3.604,16.098,8.049,16.098C172.096,232.531,171.259,233.08,171.259,216.434z"/>
				<path style="fill:#A88D63;" d="M171.259,216.434c0-16.646-0.837-16.099,3.608-16.099s8.049,7.208,8.049,16.099
					c0,8.89-3.604,16.098-8.049,16.098C170.422,232.531,171.259,233.08,171.259,216.434z"/>
			</g>
		</g>
	</g>
	<polygon style="fill:#DCDDDE;" points="244.532,0 264.516,0 248.973,58.475 228.989,58.475 	"/>
</g>
<g>
</g>
<g>
</g>
<g>
</g>
<g>
</g>
<g>
</g>
<g>
</g>
<g>
</g>
<g>
</g>
<g>
</g>
<g>
</g>
<g>
</g>
<g>
</g>
<g>
</g>
<g>
</g>
<g>
</g>
</svg>
