<?xml version="1.0" encoding="iso-8859-1"?>
<!-- Generator: Adobe Illustrator 19.0.0, SVG Export Plug-In . SVG Version: 6.00 Build 0)  -->
<svg version="1.1" id="Layer_1" xmlns="http://www.w3.org/2000/svg" xmlns:xlink="http://www.w3.org/1999/xlink" x="0px" y="0px"
	 viewBox="0 0 360.158 360.158" style="enable-background:new 0 0 360.158 360.158;" xml:space="preserve">
<g>
	<path style="fill:#C3C6C8;" d="M298.071,340.158c0,11-9,20-20,20H150.053c-11,0-20-9-20-20V154.737c0-11,9-20,20-20h128.019
		c11,0,20,9,20,20v185.421H298.071z"/>
	<rect x="130.053" y="185" style="fill:#6CC04A;" width="168.019" height="108.666"/>
	<path style="fill:#CFD1D3;" d="M230.104,340.158c0,11-9,20-20,20H82.085c-11,0-20-9-20-20V154.737c0-11,9-20,20-20h128.019
		c11,0,20,9,20,20L230.104,340.158L230.104,340.158z"/>
	<rect x="62.085" y="185" style="fill:#8DCD6F;" width="168.019" height="108.666"/>
	<path style="fill:#FFFFFF;" d="M170.029,248.771c0-13.587-24.6-42.079-24.6-42.079s-24.601,28.492-24.601,42.079
		c0,13.586,11.014,24.6,24.601,24.6C159.016,273.371,170.029,262.357,170.029,248.771z"/>
	<g>
		<rect x="133.063" style="fill:#C3C6C8;" width="96.041" height="134.737"/>
		<g>
			<rect x="142.186" y="37.25" style="fill:#A4A9AD;" width="6.158" height="97.487"/>
			<rect x="160.095" y="37.25" style="fill:#A4A9AD;" width="6.158" height="97.487"/>
			<rect x="178.005" y="37.25" style="fill:#A4A9AD;" width="6.158" height="97.487"/>
			<rect x="195.913" y="37.25" style="fill:#A4A9AD;" width="6.157" height="97.487"/>
			<rect x="213.822" y="37.25" style="fill:#A4A9AD;" width="6.157" height="97.487"/>
		</g>
	</g>
</g>
<g>
</g>
<g>
</g>
<g>
</g>
<g>
</g>
<g>
</g>
<g>
</g>
<g>
</g>
<g>
</g>
<g>
</g>
<g>
</g>
<g>
</g>
<g>
</g>
<g>
</g>
<g>
</g>
<g>
</g>
</svg>
